<svg width="16" height="17" viewBox="0 0 16 17" fill="none" xmlns="http://www.w3.org/2000/svg">
<path d="M15.6413 13.5922L13.1704 11.1188C12.6782 10.6282 11.8632 10.6431 11.3538 11.153L10.109 12.3987C10.0303 12.3553 9.94891 12.31 9.86332 12.2619C9.07719 11.826 8.00124 11.2284 6.86903 10.0944C5.73347 8.95795 5.1359 7.8794 4.69898 7.09208C4.65288 7.00866 4.6087 6.92824 4.56508 6.85187L5.40057 6.01688L5.81133 5.60525C6.32143 5.09457 6.33549 4.27904 5.84448 3.78699L3.37353 1.31331C2.88251 0.821955 2.0671 0.836861 1.55701 1.34754L0.860608 2.04856L0.879638 2.06747C0.646127 2.36569 0.450997 2.70964 0.305788 3.08055C0.171932 3.43361 0.0885942 3.77052 0.0504876 4.10813C-0.275785 6.81539 0.960264 9.28962 4.31474 12.6471C8.95165 17.2878 12.6884 16.9372 12.8496 16.9201C13.2007 16.8781 13.5372 16.7941 13.8791 16.6612C14.2465 16.5176 14.5899 16.3225 14.8877 16.0893L14.9029 16.1029L15.6084 15.4114C16.1174 14.9008 16.1321 14.085 15.6413 13.5922Z" fill="#86AFEF"/>
</svg>
