<svg width="16" height="13" viewBox="0 0 16 13" fill="none" xmlns="http://www.w3.org/2000/svg">
<path fill-rule="evenodd" clip-rule="evenodd" d="M14.9533 1.16603L8.00002 7.24158L1.04736 1.16603C1.33154 1.01004 1.65296 0.914379 1.99999 0.914379H14C14.3466 0.914379 14.668 1.01004 14.9533 1.16603ZM15.7433 11.8612C15.9013 11.5755 16 11.2508 16 10.9005V2.91171C16 2.52067 15.8829 2.1588 15.6885 1.85074L10.6914 6.21671L15.7433 11.8612ZM9.93855 6.87402L8.32905 8.28124C8.23491 8.36314 8.11768 8.40404 8.00002 8.40404C7.8823 8.40404 7.76508 8.36314 7.67093 8.28124L6.06107 6.87395L0.945312 12.5906C1.25195 12.7827 1.61132 12.8978 1.99996 12.8978H14.0001C14.3886 12.8978 14.7482 12.7827 15.0547 12.5906L9.93855 6.87402ZM0 2.91171C0 2.52063 0.117194 2.15877 0.311551 1.85071L5.30811 6.21575L0.256845 11.8612C0.0982006 11.5755 0 11.2508 0 10.9005V2.91171Z" fill="#87B0EE"/>
</svg>
