<svg width="136" height="39" viewBox="0 0 136 39" fill="none" xmlns="http://www.w3.org/2000/svg">
<path d="M33.008 33.239C29.3333 36.879 24.8613 38.699 19.592 38.699C14.3227 38.699 9.85067 36.879 6.176 33.239C2.536 29.5643 0.716 25.075 0.716 19.771C0.716 14.467 2.536 9.99501 6.176 6.35501C9.85067 2.68034 14.3227 0.843006 19.592 0.843006C24.8613 0.843006 29.3333 2.68034 33.008 6.35501C36.6827 9.99501 38.52 14.467 38.52 19.771C38.52 25.075 36.6827 29.5643 33.008 33.239ZM11.22 28.351C13.4733 30.5697 16.264 31.679 19.592 31.679C22.92 31.679 25.7107 30.5697 27.964 28.351C30.2173 26.0977 31.344 23.2377 31.344 19.771C31.344 16.3043 30.2173 13.4443 27.964 11.191C25.7107 8.93767 22.92 7.81101 19.592 7.81101C16.264 7.81101 13.4733 8.93767 11.22 11.191C8.96667 13.4443 7.84 16.3043 7.84 19.771C7.84 23.2377 8.96667 26.0977 11.22 28.351ZM65.2996 8.43501H50.7396V17.067H64.8836V23.931H50.7396V37.971H43.5636V1.57101H65.2996V8.43501ZM84.9844 1.57101C89.9764 1.57101 94.1364 3.32167 97.4644 6.82301C100.827 10.3243 102.508 14.6403 102.508 19.771C102.508 24.9017 100.827 29.2177 97.4644 32.719C94.1364 36.2203 89.9764 37.971 84.9844 37.971H70.5284V1.57101H84.9844ZM84.9844 31.107C88.1391 31.107 90.7044 30.067 92.6804 27.987C94.6564 25.8723 95.6444 23.1337 95.6444 19.771C95.6444 16.4083 94.6564 13.687 92.6804 11.607C90.7044 9.49234 88.1391 8.43501 84.9844 8.43501H77.7044V31.107H84.9844ZM127.567 37.971L120.235 25.335H114.775V37.971H107.599V1.57101H122.159C125.521 1.57101 128.381 2.74967 130.739 5.10701C133.096 7.46434 134.275 10.307 134.275 13.635C134.275 15.8883 133.633 17.9857 132.351 19.927C131.068 21.8337 129.369 23.2723 127.255 24.243L135.315 37.971H127.567ZM114.775 8.27901V19.043H122.159C123.511 19.043 124.672 18.523 125.643 17.483C126.613 16.4083 127.099 15.1257 127.099 13.635C127.099 12.1443 126.613 10.879 125.643 9.83901C124.672 8.79901 123.511 8.27901 122.159 8.27901H114.775Z" fill="#E1E1E1"/>
</svg>
