<svg width="16" height="15" viewBox="0 0 16 15" fill="none" xmlns="http://www.w3.org/2000/svg">
<path fill-rule="evenodd" clip-rule="evenodd" d="M3.96933 9.01695L0.282608 7.63601C-0.0918463 7.49519 -0.0950996 6.96465 0.278288 6.82013L15.4087 0.962334C15.7295 0.837835 16.0604 1.11986 15.9906 1.45792L13.2753 14.5656C13.2113 14.8751 12.8498 15.0155 12.5946 14.8293L8.88801 12.1286C8.66288 11.9646 8.35606 11.9734 8.14064 12.1495L6.0856 13.8309C5.84704 14.0266 5.48763 13.9176 5.39632 13.6226L3.96933 9.01695ZM12.8005 3.94791L5.35628 8.29977C5.07096 8.46693 4.93662 8.79397 5.02881 9.10014L5.83369 11.7845C5.89083 11.9747 6.18172 11.9552 6.20944 11.7587L6.41872 10.2866C6.45817 10.0095 6.59747 9.75412 6.81342 9.56333L12.9571 4.14279C13.072 4.04163 12.9343 3.86993 12.8005 3.94791Z" fill="white"/>
</svg>
