<svg width="19" height="20" viewBox="0 0 19 20" fill="none" xmlns="http://www.w3.org/2000/svg">
<path d="M17.0789 3.05774C15.4992 1.58734 12.9453 0.874879 9.48679 0.939078C5.9995 1.0042 3.66841 1.58534 2.15077 2.76801C0.683408 3.9114 0 5.58451 0 8.03337V10.5326C0 13.4236 1.63166 16.6019 4.75013 17.0828C5.11015 17.1387 5.4493 16.9064 5.50776 16.5645C5.56622 16.2227 5.32181 15.9007 4.96179 15.8451C2.59681 15.4804 1.32068 12.8358 1.32068 10.5326V8.03337C1.32068 4.52196 2.6911 2.32004 9.51268 2.19264C12.6053 2.13446 14.8374 2.72722 16.1542 3.95303C17.1804 4.90841 17.6792 6.24306 17.6792 8.03337V10.5326C17.6792 14.3172 15.8901 15.9865 11.3011 16.478H8.04716C7.87204 16.478 7.70405 16.5441 7.58026 16.6617L5.28747 18.8385C5.02959 19.0834 5.02959 19.4804 5.28747 19.7252C5.41637 19.8476 5.58542 19.9089 5.75438 19.9089C5.92334 19.9089 6.09238 19.8477 6.22128 19.7252L8.32072 17.7319H11.338C11.3623 17.7319 11.3867 17.7307 11.4109 17.7281C14.0372 17.4511 15.8356 16.8022 17.0704 15.6857C18.3688 14.5118 19 12.8262 19 10.5326V8.03337C19 5.91855 18.3537 4.24452 17.0789 3.05774Z" fill="white"/>
<path d="M9.74881 4.85897C9.7489 4.85897 9.7489 4.85897 9.74909 4.85897C10.8788 4.85897 11.9409 5.2784 12.7398 6.03993C13.5388 6.80154 13.9788 7.81417 13.9787 8.89122C13.9787 9.26031 14.2925 9.55954 14.6797 9.55954C14.6798 9.55954 14.6798 9.55954 14.6798 9.55954C15.067 9.55954 15.3809 9.2604 15.3809 8.89131C15.381 7.4572 14.7952 6.1089 13.7314 5.09484C12.6677 4.08078 11.2535 3.52243 9.74909 3.52243C9.74899 3.52243 9.74871 3.52243 9.74862 3.52243C9.36142 3.52243 9.04761 3.82166 9.04761 4.19074C9.0477 4.55974 9.36161 4.85897 9.74881 4.85897Z" fill="white"/>
<path d="M9.70351 7.3604C10.6138 7.36057 11.3546 8.0666 11.3547 8.93429C11.3548 9.27964 11.6484 9.55961 12.0108 9.55953C12.3731 9.55953 12.6667 9.27947 12.6667 8.93413C12.6664 7.37699 11.3373 6.11001 9.70368 6.10976H9.7036C9.34132 6.10976 9.04769 6.38965 9.04761 6.73499C9.04761 7.08034 9.34123 7.3604 9.70351 7.3604Z" fill="white"/>
<path d="M6.78974 8.13783C6.4932 8.33112 6.41714 8.71697 6.61983 8.99964C6.82253 9.28231 7.2274 9.35473 7.52394 9.16152C7.75717 9.00956 8.30341 8.65356 8.26508 7.94189C8.24079 7.51594 7.83774 6.90778 7.50391 6.47257C7.0156 5.83581 6.59477 5.45227 6.25573 5.33339C5.93915 5.22103 5.60809 5.21863 5.27105 5.32644C4.57293 5.55066 4.06606 5.95585 3.80534 6.4982C3.55148 7.02617 3.55711 7.63293 3.82174 8.25324C4.44674 9.71479 5.3217 10.9944 6.42815 12.0619C7.54224 13.1109 8.88452 13.945 10.4184 14.5411C10.7503 14.6698 11.0787 14.7342 11.3943 14.7342C11.697 14.7342 11.988 14.675 12.2591 14.5565C12.8281 14.3079 13.2531 13.8248 13.4886 13.1586C13.6013 12.838 13.5988 12.5226 13.4819 12.2229C13.3563 11.8974 12.9539 11.4964 12.2859 11.0309C11.8293 10.7127 11.1913 10.3285 10.7427 10.3053C9.99766 10.2695 9.62453 10.7893 9.46511 11.0116C9.26233 11.2943 9.33822 11.6802 9.63476 11.8735C9.93139 12.0669 10.3361 11.9945 10.539 11.7118C10.6097 11.6132 10.6501 11.5684 10.6733 11.5488C11.0385 11.6603 12.0797 12.3895 12.2671 12.669C12.2717 12.6868 12.2728 12.714 12.2554 12.7635C12.1734 12.9958 12.0133 13.2998 11.7171 13.4292C11.4397 13.5503 11.1244 13.476 10.9091 13.3926C9.53467 12.8584 8.33472 12.114 7.34805 11.1849C6.36787 10.2392 5.58684 9.09538 5.02681 7.78571C4.93903 7.58002 4.86106 7.27932 4.98812 7.01509C5.12386 6.73276 5.44287 6.58014 5.68572 6.50209C5.73758 6.48555 5.76612 6.48646 5.7859 6.49101C6.07914 6.67 6.84369 7.66195 6.96078 8.01009C6.94014 8.03184 6.89322 8.07045 6.78974 8.13783Z" fill="white"/>
</svg>
