<svg width="18" height="19" viewBox="0 0 18 19" fill="none" xmlns="http://www.w3.org/2000/svg">
<path fill-rule="evenodd" clip-rule="evenodd" d="M18 9.69119C18 14.5271 14.0442 18.4473 9.1636 18.4473C7.6142 18.4473 6.1586 18.0518 4.8922 17.3578L0 18.9102L1.595 14.2123C0.7904 12.893 0.327 11.3455 0.327 9.69119C0.327 4.85527 4.2832 0.935097 9.1636 0.935097C14.0446 0.935097 18 4.85527 18 9.69119ZM9.16358 2.32957C5.06678 2.32957 1.73438 5.632 1.73438 9.69119C1.73438 11.302 2.26017 12.7937 3.14957 14.0072L2.22137 16.7412L5.07638 15.8351C6.24937 16.6042 7.65457 17.0528 9.16377 17.0528C13.26 17.0528 16.593 13.7508 16.593 9.69159C16.593 5.6324 13.2602 2.32957 9.16358 2.32957ZM13.3279 11.5142C13.4794 11.5868 13.5817 11.6358 13.6258 11.7078C13.6796 11.7973 13.6796 12.2269 13.4996 12.7286C13.3184 13.2295 12.434 13.7128 12.0372 13.7486C11.9692 13.7547 11.9128 13.7682 11.855 13.7821C11.5754 13.8491 11.2628 13.924 9.43779 13.2121C7.40285 12.4179 6.06154 10.4466 5.78434 10.0392C5.76159 10.0057 5.746 9.98284 5.73779 9.97199L5.73743 9.97152C5.6275 9.82676 4.85339 8.80745 4.85339 7.75246C4.85339 6.76444 5.34315 6.24626 5.56868 6.00765C5.58418 5.99124 5.59843 5.97616 5.61119 5.96234C5.80979 5.74764 6.04459 5.69391 6.18899 5.69391C6.26362 5.69391 6.33831 5.69871 6.41048 5.70335C6.47795 5.70769 6.54322 5.71189 6.60419 5.71189C6.61934 5.71189 6.63525 5.71086 6.65183 5.7098C6.7739 5.70195 6.93257 5.69175 7.09139 6.06979C7.14921 6.20755 7.23305 6.40965 7.32205 6.62423C7.51075 7.07914 7.7227 7.59011 7.75939 7.66299C7.81379 7.77064 7.84999 7.89587 7.77739 8.03907C7.76708 8.05967 7.7575 8.07915 7.74834 8.09779C7.69375 8.20887 7.65399 8.28977 7.56099 8.39717C7.52514 8.43867 7.48808 8.48337 7.45099 8.52809C7.37617 8.61833 7.30125 8.70869 7.23599 8.77305C7.12779 8.87991 7.01479 8.99594 7.14099 9.21065C7.26739 9.42575 7.70219 10.128 8.34599 10.6968C9.03855 11.3086 9.6403 11.5673 9.94495 11.6983C10.0043 11.7238 10.0523 11.7444 10.0876 11.7619C10.3044 11.8694 10.4306 11.8514 10.557 11.7078C10.6836 11.5646 11.0988 11.0815 11.243 10.8666C11.3872 10.6519 11.532 10.6878 11.7306 10.7593C11.9286 10.8306 12.9938 11.3501 13.2106 11.4573C13.2524 11.4781 13.2916 11.4968 13.3279 11.5142Z" fill="white"/>
</svg>
